<svg width="568" height="426" viewBox="0 0 568 426" fill="none" xmlns="http://www.w3.org/2000/svg">
<rect width="568" height="426" fill="#424242"/>
<path d="M169.268 225V199.406H178.461C181.754 199.406 184.256 200.01 185.967 201.217C187.689 202.424 188.551 204.176 188.551 206.473C188.551 207.797 188.246 208.928 187.637 209.865C187.027 210.803 186.131 211.494 184.947 211.939C186.283 212.291 187.309 212.947 188.023 213.908C188.738 214.869 189.096 216.041 189.096 217.424C189.096 219.932 188.299 221.818 186.705 223.084C185.123 224.338 182.773 224.977 179.656 225H169.268ZM175.438 214.119V220.254H179.48C180.594 220.254 181.449 220.002 182.047 219.498C182.645 218.982 182.943 218.262 182.943 217.336C182.943 215.203 181.883 214.131 179.762 214.119H175.438ZM175.438 210.076H178.654C180.002 210.064 180.963 209.818 181.537 209.338C182.111 208.857 182.398 208.148 182.398 207.211C182.398 206.133 182.088 205.359 181.467 204.891C180.846 204.41 179.844 204.17 178.461 204.17H175.438V210.076ZM202.947 225C202.736 224.613 202.549 224.045 202.385 223.295C201.295 224.666 199.771 225.352 197.814 225.352C196.021 225.352 194.498 224.812 193.244 223.734C191.99 222.645 191.363 221.279 191.363 219.639C191.363 217.576 192.125 216.018 193.648 214.963C195.172 213.908 197.387 213.381 200.293 213.381H202.121V212.379C202.121 210.633 201.365 209.76 199.854 209.76C198.447 209.76 197.744 210.451 197.744 211.834H191.82C191.82 209.994 192.6 208.5 194.158 207.352C195.729 206.203 197.727 205.629 200.152 205.629C202.578 205.629 204.494 206.221 205.9 207.404C207.307 208.588 208.027 210.211 208.062 212.273V220.693C208.086 222.439 208.355 223.775 208.871 224.701V225H202.947ZM199.238 221.133C199.977 221.133 200.586 220.975 201.066 220.658C201.559 220.342 201.91 219.984 202.121 219.586V216.545H200.398C198.336 216.545 197.305 217.471 197.305 219.322C197.305 219.861 197.486 220.301 197.85 220.641C198.213 220.969 198.676 221.133 199.238 221.133ZM210.611 215.35C210.611 212.338 211.262 209.965 212.562 208.23C213.863 206.496 215.68 205.629 218.012 205.629C219.711 205.629 221.141 206.297 222.301 207.633V198H228.242V225H222.916L222.617 222.961C221.398 224.555 219.852 225.352 217.977 225.352C215.715 225.352 213.922 224.484 212.598 222.75C211.273 221.016 210.611 218.549 210.611 215.35ZM216.535 215.719C216.535 219.094 217.52 220.781 219.488 220.781C220.801 220.781 221.738 220.23 222.301 219.129V211.887C221.762 210.762 220.836 210.199 219.523 210.199C217.695 210.199 216.705 211.676 216.553 214.629L216.535 215.719ZM246.822 225H240.881V205.98H246.822V225ZM240.529 201.076C240.529 200.232 240.834 199.541 241.443 199.002C242.053 198.463 242.844 198.193 243.816 198.193C244.789 198.193 245.58 198.463 246.189 199.002C246.799 199.541 247.104 200.232 247.104 201.076C247.104 201.92 246.799 202.611 246.189 203.15C245.58 203.689 244.789 203.959 243.816 203.959C242.844 203.959 242.053 203.689 241.443 203.15C240.834 202.611 240.529 201.92 240.529 201.076ZM256.086 205.98L256.279 208.213C257.627 206.49 259.438 205.629 261.711 205.629C264.113 205.629 265.736 206.584 266.58 208.494C267.869 206.584 269.732 205.629 272.17 205.629C276.025 205.629 278.006 207.961 278.111 212.625V225H272.17V212.994C272.17 212.021 272.006 211.312 271.678 210.867C271.35 210.422 270.752 210.199 269.885 210.199C268.713 210.199 267.84 210.721 267.266 211.764L267.283 212.01V225H261.342V213.029C261.342 212.033 261.184 211.312 260.867 210.867C260.551 210.422 259.947 210.199 259.057 210.199C257.92 210.199 257.053 210.721 256.455 211.764V225H250.531V205.98H256.086ZM292.209 225C291.998 224.613 291.811 224.045 291.646 223.295C290.557 224.666 289.033 225.352 287.076 225.352C285.283 225.352 283.76 224.812 282.506 223.734C281.252 222.645 280.625 221.279 280.625 219.639C280.625 217.576 281.387 216.018 282.91 214.963C284.434 213.908 286.648 213.381 289.555 213.381H291.383V212.379C291.383 210.633 290.627 209.76 289.115 209.76C287.709 209.76 287.006 210.451 287.006 211.834H281.082C281.082 209.994 281.861 208.5 283.42 207.352C284.99 206.203 286.988 205.629 289.414 205.629C291.84 205.629 293.756 206.221 295.162 207.404C296.568 208.588 297.289 210.211 297.324 212.273V220.693C297.348 222.439 297.617 223.775 298.133 224.701V225H292.209ZM288.5 221.133C289.238 221.133 289.848 220.975 290.328 220.658C290.82 220.342 291.172 219.984 291.383 219.586V216.545H289.66C287.598 216.545 286.566 217.471 286.566 219.322C286.566 219.861 286.748 220.301 287.111 220.641C287.475 220.969 287.938 221.133 288.5 221.133ZM299.926 215.35C299.926 213.428 300.242 211.729 300.875 210.252C301.508 208.775 302.416 207.639 303.6 206.842C304.783 206.033 306.16 205.629 307.73 205.629C309.711 205.629 311.258 206.297 312.371 207.633L312.582 205.98H317.961V224.279C317.961 225.955 317.568 227.408 316.783 228.639C316.01 229.881 314.885 230.83 313.408 231.486C311.932 232.154 310.221 232.488 308.275 232.488C306.881 232.488 305.527 232.225 304.215 231.697C302.914 231.17 301.918 230.484 301.227 229.641L303.705 226.16C304.807 227.461 306.26 228.111 308.064 228.111C310.689 228.111 312.002 226.764 312.002 224.068V223.471C310.865 224.725 309.43 225.352 307.695 225.352C305.375 225.352 303.5 224.467 302.07 222.697C300.641 220.916 299.926 218.537 299.926 215.561V215.35ZM305.867 215.719C305.867 217.277 306.16 218.514 306.746 219.428C307.332 220.33 308.152 220.781 309.207 220.781C310.484 220.781 311.416 220.354 312.002 219.498V211.5C311.428 210.633 310.508 210.199 309.242 210.199C308.188 210.199 307.361 210.674 306.764 211.623C306.166 212.561 305.867 213.926 305.867 215.719ZM330.529 225.352C327.611 225.352 325.25 224.484 323.445 222.75C321.641 221.004 320.738 218.736 320.738 215.947V215.455C320.738 213.51 321.096 211.793 321.811 210.305C322.537 208.816 323.592 207.668 324.975 206.859C326.357 206.039 327.998 205.629 329.896 205.629C332.568 205.629 334.678 206.461 336.225 208.125C337.771 209.777 338.545 212.086 338.545 215.051V217.354H326.768C326.979 218.42 327.441 219.258 328.156 219.867C328.871 220.477 329.797 220.781 330.934 220.781C332.809 220.781 334.273 220.125 335.328 218.812L338.035 222.012C337.297 223.031 336.248 223.846 334.889 224.455C333.541 225.053 332.088 225.352 330.529 225.352ZM329.861 210.199C328.127 210.199 327.096 211.348 326.768 213.645H332.744V213.188C332.768 212.238 332.527 211.506 332.023 210.99C331.52 210.463 330.799 210.199 329.861 210.199ZM351.289 225V210.094H348.529V205.98H351.289V205.348C351.324 202.816 352.156 200.877 353.785 199.529C355.332 198.264 357.494 197.631 360.271 197.631C362.018 197.631 364.08 197.971 366.459 198.65L365.65 203.326L364.666 203.062C363.389 202.723 362.041 202.553 360.623 202.553C358.361 202.553 357.23 203.584 357.23 205.646V205.98H360.957V210.094H357.23V225H351.289ZM369.184 225H363.225V205.98H369.184V225ZM379.045 225H373.104V198H379.045V225ZM391.912 225.352C388.994 225.352 386.633 224.484 384.828 222.75C383.023 221.004 382.121 218.736 382.121 215.947V215.455C382.121 213.51 382.479 211.793 383.193 210.305C383.92 208.816 384.975 207.668 386.357 206.859C387.74 206.039 389.381 205.629 391.279 205.629C393.951 205.629 396.061 206.461 397.607 208.125C399.154 209.777 399.928 212.086 399.928 215.051V217.354H388.15C388.361 218.42 388.824 219.258 389.539 219.867C390.254 220.477 391.18 220.781 392.316 220.781C394.191 220.781 395.656 220.125 396.711 218.812L399.418 222.012C398.68 223.031 397.631 223.846 396.271 224.455C394.924 225.053 393.471 225.352 391.912 225.352ZM391.244 210.199C389.51 210.199 388.479 211.348 388.15 213.645H394.127V213.188C394.15 212.238 393.91 211.506 393.406 210.99C392.902 210.463 392.182 210.199 391.244 210.199Z" fill="#383838"/>
</svg>
